<svg width="25" height="25" viewBox="0 0 25 25" fill="none" xmlns="http://www.w3.org/2000/svg">
<path d="M12.5 25C19.4036 25 25 19.4036 25 12.5C25 5.59644 19.4036 0 12.5 0C5.59644 0 0 5.59644 0 12.5C0 19.4036 5.59644 25 12.5 25Z" fill="white"/>
<path d="M2.41655 5.1123C1.04322 6.98689 0.219894 9.2072 0.0382272 11.524C-0.143439 13.8407 0.324889 16.1622 1.38989 18.2277C2.45489 20.2932 4.07489 22.0209 6.06656 23.217C8.05989 24.413 10.3466 25.03 12.6699 24.9985L12.4999 12.4997L2.41655 5.1123Z" fill="#A7B1FF"/>
<path fill-rule="evenodd" clip-rule="evenodd" d="M24.4488 16.1752L12.5021 12.5L12.3438 24.999C13.1537 25.0092 13.9654 24.9408 14.7671 24.793C16.7888 24.4207 18.6871 23.5553 20.2938 22.2738C21.9021 20.9923 23.1671 19.3342 23.9821 17.4463C24.1604 17.0303 24.3171 16.6058 24.4488 16.1752Z" fill="#FFA7A7"/>
</svg>
