<svg width="202" height="50" viewBox="0 0 202 50" fill="none" xmlns="http://www.w3.org/2000/svg">
<g clip-path="url(#clip0_533_40)">
<path d="M189.332 26.667C196.236 26.667 201.832 21.0706 201.832 14.167C201.832 7.26343 196.236 1.66699 189.332 1.66699C182.428 1.66699 176.832 7.26343 176.832 14.167C176.832 21.0706 182.428 26.667 189.332 26.667Z" fill="white"/>
<path d="M179.249 6.7793C177.875 8.65388 177.052 10.8742 176.87 13.1909C176.689 15.5077 177.157 17.8292 178.222 19.8947C179.287 21.9602 180.907 23.6879 182.899 24.884C184.892 26.08 187.179 26.697 189.502 26.6655L189.332 14.1667L179.249 6.7793Z" fill="#A7B1FF"/>
<path fill-rule="evenodd" clip-rule="evenodd" d="M201.281 17.8422L189.334 14.167L189.176 26.666C189.986 26.6762 190.797 26.6078 191.599 26.46C193.621 26.0877 195.519 25.2223 197.126 23.9408C198.734 22.6593 199.999 21.0012 200.814 19.1133C200.992 18.6973 201.149 18.2728 201.281 17.8422Z" fill="#FFA7A7"/>
<path d="M2.44547 20.2804C2.00547 18.8804 1.68547 17.8404 1.68547 15.8804C1.64547 15.0804 1.60547 14.2004 1.60547 13.6404C1.60547 13.1204 2.56547 11.9604 3.08547 12.4804C3.64547 13.0404 4.12547 13.7204 4.60547 14.4004C5.52547 15.5604 5.84547 16.5204 6.44547 17.8004C6.64547 18.1204 7.44547 19.8404 7.60547 20.4404C7.80547 21.3604 8.04547 22.2804 8.56547 23.0404C8.84547 23.7204 9.48547 26.0004 9.48547 26.6004C9.48547 27.6404 10.2055 28.7204 10.2055 29.3604C10.2055 30.0404 10.7655 32.3204 11.1255 33.2804C11.4055 34.0404 11.8055 34.5604 12.1255 34.5604C12.4855 34.5604 12.9255 32.2804 13.4855 30.8404C14.1255 29.3204 14.6055 27.7604 15.2455 26.2404C15.9255 24.5204 16.1255 22.1604 16.9255 20.5204C17.7255 18.9604 17.9655 17.8404 18.7655 16.2404L19.3655 15.0404C19.6055 14.6004 20.0455 13.4804 20.4855 12.5204C20.8055 11.9604 21.5655 11.6804 21.9255 12.1604C22.4855 12.9604 22.8055 13.4804 22.8855 13.8404C22.9655 14.2404 23.0455 14.7204 23.4455 15.6804V19.6404C23.4455 19.7604 22.6055 22.3604 22.3655 22.8404C21.6455 24.6004 20.9655 26.9204 19.9655 28.8004C19.5255 29.5604 19.2855 30.0804 19.2055 30.3604C18.6055 32.2004 18.0055 34.1604 17.2455 36.0404C17.1255 36.3604 16.0455 39.4404 15.6455 39.4404C15.2455 39.4404 14.6455 39.4804 14.4455 39.6804C13.9655 40.1204 13.0855 39.3604 12.6055 39.6804L11.6055 40.2404C10.9255 40.6404 9.80547 40.4404 9.20547 39.8404C8.88547 39.6404 8.52547 38.7604 8.36547 38.4004C8.12547 38.0004 7.96547 37.4004 7.72547 36.9204C6.64547 34.9204 6.08547 33.5204 5.68547 32.4004C5.52547 32.1604 4.96547 30.0804 4.84547 29.2404C4.48547 27.4004 3.32547 24.8804 3.20547 23.3204C3.08547 22.4404 2.76547 21.2404 2.44547 20.2804ZM27.3083 39.4004C26.5483 39.4004 23.8683 36.5204 23.6283 35.5604C23.6283 35.5604 23.5483 34.4804 23.4683 34.0804C23.4683 32.6404 24.1483 31.3604 24.7483 30.0004H24.7083C24.8683 29.8004 25.2683 28.9204 25.3483 28.7204C25.5883 28.0804 27.9483 25.5204 28.6683 25.0404C28.7883 25.0404 29.8683 24.2004 29.8683 24.2004C31.1083 23.5204 32.0283 22.4404 33.4283 21.9604C33.4283 21.5604 33.5083 21.1604 33.5083 20.7604C33.7083 20.5604 34.0683 20.3604 34.3483 20.1604C34.6283 20.0004 34.9483 20.0804 35.2283 20.2004C35.5483 20.4004 35.8683 20.6404 36.0683 20.8404C36.5483 21.3204 37.3483 23.2004 37.9483 25.1604L38.3883 26.9204C38.4283 27.1204 38.5883 28.1204 38.5883 28.2404C38.5883 28.8404 39.4283 32.2004 39.4283 32.4804C39.4283 32.6004 39.4683 32.6804 39.5083 32.7604L39.9883 34.4004C40.0283 34.6404 40.0683 34.8004 40.0683 34.8004C40.0683 35.0404 40.2683 35.6804 40.3483 35.8404C40.3883 35.8804 40.7083 36.4804 40.7083 36.5204C41.0683 37.6004 41.1083 37.9604 41.1483 38.3204C41.1883 38.4804 41.1883 38.5204 41.1883 39.2004C41.1883 39.8804 39.9883 40.0004 39.5483 39.9204C38.9883 39.8004 37.8683 39.4004 37.1083 38.4404C36.5483 37.7204 36.3883 37.5204 36.3883 37.4404L35.5483 35.4004C35.0683 36.1604 34.0683 37.3604 33.2283 38.3604C32.5083 39.2404 31.4683 39.5204 31.1083 39.6804C30.8683 39.7604 30.0283 39.9604 29.9483 39.9604H29.1883C28.7483 39.9604 27.8683 39.9204 27.3083 39.4004ZM29.2283 34.6804C29.3883 34.8404 29.3483 35.0804 29.5883 35.3204L29.9483 35.6004C30.7883 35.7204 31.2683 35.8404 32.0683 35.2804L34.8283 33.4804V32.6804C34.8283 32.2804 34.6683 31.4404 34.5083 31.0404C34.5083 30.6004 34.3083 29.9604 34.2683 29.3604L34.0683 27.6804C34.0683 27.5604 34.0283 27.2804 34.0283 27.2404H33.5883C33.1483 27.2404 31.6683 28.7204 31.2683 29.1604C30.5083 30.0804 30.2683 30.4404 30.1483 30.7204C29.8283 31.2404 29.6283 31.9204 29.4283 32.6004C29.3483 32.7204 29.3483 33.0004 29.3483 33.2404C29.3083 33.3204 29.2283 33.5204 29.2283 33.6004V34.6804ZM43.8955 31.4404C43.8955 31.4404 44.0155 30.5204 44.0955 29.9604C44.1755 29.6404 44.2555 29.1204 44.2555 28.9604C44.2555 28.8004 44.5355 28.0804 44.5755 27.6804H44.5355L45.0955 26.0004L45.6155 25.0004L45.9355 24.3604L46.3355 23.8004V23.8404C46.4155 23.7604 46.7355 23.3604 46.8155 23.1604L47.1355 22.8804C47.1355 22.8804 47.4955 22.5604 47.6955 22.4804L48.0555 22.4004C48.0555 22.4004 48.1355 22.3604 48.2155 22.2804C48.2555 22.2404 48.3755 22.1604 48.4555 22.1604C48.4955 22.0804 49.1355 21.8404 49.2155 21.8404L49.4955 21.7604C49.4955 21.7604 49.7355 21.7604 49.8955 21.7204C50.2955 21.6804 50.8955 21.6004 50.8155 21.6004C50.7355 21.6004 51.3355 21.5204 51.6555 21.4804L52.1755 21.4004H52.8155C52.8955 21.4004 53.3755 21.3604 53.8955 21.2804C54.3355 21.2004 54.8555 21.1204 54.9355 21.1204H55.1355C55.1755 21.1604 55.5355 21.2004 55.7355 21.2404C55.8155 21.2804 55.9355 21.2804 56.0155 21.2804C56.3355 21.3604 57.2955 21.5604 57.6155 21.6004C57.7355 21.7204 57.9755 21.7604 58.1755 21.8004C58.2555 21.8404 58.3755 21.8404 58.4555 21.8404C58.4555 22.0004 58.6955 22.1604 58.7755 22.2404C58.8155 22.2804 58.8955 22.2804 58.8955 22.3204L59.0155 22.4404V24.0004C59.0155 24.0004 58.8955 24.2004 58.7755 24.3604C58.7755 24.3204 58.4955 24.6004 58.4955 24.6004L58.3355 24.8004C58.2555 24.8404 58.1355 24.8804 58.1355 24.8804C58.0555 24.9204 58.0155 24.9204 58.0155 24.9204C57.8955 24.9604 57.1355 25.0404 56.9355 25.0404H53.8155C53.6555 25.0404 52.9355 25.0804 52.6555 25.1604C52.5755 25.1604 52.4555 25.1604 52.4155 25.2004H52.4555C52.3355 25.2404 52.2155 25.3204 52.0955 25.3204L51.2955 25.6404C51.2955 25.6404 51.1355 25.7204 51.0155 25.8404C50.9755 25.8804 51.0555 25.8404 50.9755 25.9204C50.7755 26.2404 50.5755 26.4804 50.5355 26.6004V26.5204L50.0155 27.3604C49.8955 27.6004 49.3755 29.0804 49.3355 29.3604V29.7204C49.3355 29.9604 49.2955 30.2404 49.2955 30.4404C49.2955 30.5204 49.2955 30.7604 49.2555 31.0004C49.2155 31.3604 49.1755 31.7604 49.1755 31.9204C49.1755 32.3204 49.2155 32.7204 49.2555 33.0004C49.2555 33.1204 49.2955 33.1604 49.2955 33.2004C49.2955 33.2004 49.2955 33.4404 49.3355 33.5604C49.5355 34.0404 50.0555 34.3204 50.6555 34.4804C50.8555 34.6004 51.2955 34.6004 51.2955 34.6004H53.6555C53.7355 34.6004 53.9755 34.6004 54.1355 34.5604C54.2155 34.5604 54.2955 34.4804 54.2955 34.4804H55.0155C55.0155 34.4804 55.0555 34.4404 55.0155 34.4404C55.1755 34.3204 55.4155 34.2004 55.4555 34.2004H56.2555C56.2555 34.2004 56.4955 34.1604 56.7355 34.0804C56.7755 34.0404 56.8555 34.0004 57.9355 33.6404L58.1355 33.4804H58.6955C58.7355 33.4804 58.8555 33.5204 58.8555 33.6404C58.8955 33.6404 58.9355 33.6404 59.0155 33.7204V34.8004C59.0155 34.9604 58.8555 35.5604 58.7355 36.3204L58.6155 37.0004L58.2955 37.3604C58.2955 37.4404 58.1755 37.5604 58.0955 37.6404L56.8155 38.5204C56.7355 38.5204 56.1755 38.6804 55.9755 38.8004C55.8955 38.8004 55.7355 39.0804 55.7355 39.0804C55.6155 39.0804 55.1355 39.2804 54.2555 39.5204C54.0155 39.6004 53.6955 39.6404 53.6555 39.6404C53.4955 39.6404 53.4555 39.6804 53.4155 39.7204L52.4955 39.8404C52.2155 39.8804 51.8155 39.9204 51.7355 39.9204H50.6155C50.1755 39.9204 49.3355 39.8404 48.7755 39.8004C48.5355 39.7604 48.2555 39.7604 48.2155 39.7604C48.1755 39.7604 47.5755 39.6004 47.3355 39.4804V39.5204C47.2955 39.4804 47.1355 39.4004 47.0955 39.4004C46.7355 39.2004 46.4155 38.9204 46.0555 38.6404C46.0955 38.6804 46.0555 38.6804 46.0155 38.6004C45.9755 38.6004 45.9755 38.6004 45.9755 38.5604C45.7355 38.2004 44.8955 36.9604 44.7355 36.5204C44.7355 36.5604 44.6555 36.2804 44.6155 36.0804L44.2555 34.9204C44.2555 34.7604 43.9755 33.2004 43.9755 33.0004L43.8955 32.4804V31.4404ZM64.052 32.4004C64.052 31.3604 64.252 30.2804 64.252 29.2004C64.372 27.6004 64.652 25.9204 64.652 23.8004C64.732 22.6004 64.892 21.4004 64.892 20.1204V15.8004C64.892 15.2804 64.652 14.9204 64.212 14.4004C63.612 13.6404 63.052 13.4804 62.932 13.3204C62.572 12.9604 62.732 11.9204 63.332 11.9204C64.692 11.9204 66.372 12.0804 67.812 12.4004C70.212 13.0004 70.932 13.2404 71.572 13.4404C73.732 14.2004 75.372 15.0404 76.732 15.8004C79.452 17.3204 80.612 18.6804 81.052 19.3204C81.932 20.6404 82.052 21.2404 82.052 21.7204C82.052 22.3604 82.092 23.6404 80.372 25.9204C79.092 27.6404 77.412 28.9204 76.212 29.4404C75.692 29.7204 74.092 30.2404 73.412 30.4004C71.972 30.6404 71.412 30.6404 70.772 31.2804C70.612 31.4404 70.452 32.2804 70.372 33.3204C70.292 35.0404 70.332 37.4004 70.332 38.3204C70.332 39.2404 70.012 39.3204 69.412 40.0004C68.972 40.5204 68.452 40.4404 67.532 40.6404C67.492 40.6404 67.132 40.1604 66.572 40.4804L65.892 40.6404L65.212 40.2004C65.012 40.0004 65.092 39.4804 64.852 39.3604L64.172 39.0004C63.972 38.8804 64.052 38.1604 64.052 38.0004V32.4004ZM70.252 24.1604C70.292 24.7204 70.332 25.3204 70.692 25.8004C71.612 25.8004 72.212 25.2004 72.892 24.8004C73.172 24.6804 73.932 24.1604 75.012 23.2404C75.612 22.6404 76.212 22.0804 76.692 21.2404V20.6004C76.692 20.4404 76.412 20.2004 75.132 19.1204C74.452 18.6004 73.692 18.2804 73.012 17.8404C71.492 16.8404 70.572 16.6004 68.972 16.3204C68.972 17.4404 69.332 18.6004 69.692 19.9204C69.852 20.8804 70.012 21.8004 70.252 24.1604ZM85.7473 39.6804C85.7073 39.7204 85.4273 39.6804 85.3073 39.6404L85.0273 39.3204C84.9473 39.2004 84.7873 38.8404 84.7873 38.8004C84.7873 38.7604 84.7473 38.5604 84.7473 38.4004C84.6673 38.1204 84.6273 37.6804 84.6273 37.5204V37.2804C84.6273 37.0404 84.9873 34.8404 85.1473 33.2004C85.2673 33.0004 85.2673 32.8004 85.3073 32.2004C85.3473 32.1604 85.3873 32.0404 85.3873 31.9604C85.4673 31.6804 85.5073 30.7204 85.5073 30.5604V27.3604C85.5073 27.2004 85.4673 26.3204 85.4273 25.4804C85.3873 24.6404 85.3873 23.8004 85.3873 23.5604V23.2404L85.7073 20.2804C85.7473 19.8404 85.7873 19.5204 85.7873 19.3604V19.1204C85.8273 18.9604 85.9073 18.7204 85.9073 18.6404V17.8804C85.9073 17.8404 85.9473 17.5604 86.0273 17.2804C86.0673 17.0004 86.1473 16.5204 86.1473 16.6004C86.1473 16.5604 86.1873 16.1604 86.2673 15.7204C86.3073 15.3204 86.4273 14.6004 86.4273 14.6804C86.4673 14.5204 86.5473 14.2404 86.5473 14.1604C86.5473 14.1604 86.5473 14.1204 86.5873 14.0004C86.6273 13.8804 86.6673 13.6804 86.6673 13.6004C86.7473 13.3204 86.9073 12.6004 86.9073 12.6004C86.9073 12.6004 86.9473 12.5204 86.9073 12.5604C87.0273 12.4004 87.3073 12.0804 87.3073 12.1204L87.9473 11.4404C87.9873 11.4404 88.0273 11.4804 88.1473 11.5204L88.5873 11.8004L88.7473 12.0404L89.1073 12.6404C89.1073 12.7604 89.1473 12.9204 89.1873 13.0004L89.2273 13.0404C89.2273 13.1204 89.2673 13.3604 89.3473 13.5604C89.3473 13.6404 89.3873 13.9204 89.4673 14.2004C89.5073 14.5204 89.5873 14.8404 89.5873 14.8004C89.5873 14.8404 89.6673 15.1204 89.7073 15.3204C89.7873 15.4804 89.8673 15.7604 89.8673 15.7204V15.7604C89.9473 16.0004 90.1073 16.9204 90.1073 17.1204L90.6273 21.6404V23.3204C90.6273 23.4804 90.7073 23.9204 90.7473 24.0404V27.4804C90.7473 27.6004 90.7473 28.2004 90.7873 28.8004C90.8273 29.3604 90.8673 29.9204 90.8673 30.0404V30.6804C90.8673 30.8804 90.8273 31.6004 90.7873 32.0804C90.7473 32.4004 90.7473 32.7204 90.7473 32.8004C90.7473 32.9604 90.5473 34.3604 90.4673 34.8004C90.4673 34.8404 90.4273 35.0404 90.3873 35.2404C90.3473 35.4004 90.3473 35.6004 90.3473 35.6004V35.8404C90.3073 36.3604 89.8673 38.5204 89.7073 39.0004C89.7073 39.0804 89.6673 39.1604 89.6273 39.2804V39.2404C89.5873 39.2804 89.5873 39.4004 89.5873 39.4804C89.5473 39.6804 89.4673 39.9604 89.3473 40.0804V40.1204H89.1073L88.8273 40.0004C88.7873 40.0004 88.5873 40.1204 88.4673 40.2404H87.4273C87.4273 40.2404 87.3473 40.2804 87.2673 40.3604L87.1073 40.5204H86.9473L85.9873 39.6804H85.7473ZM98.0115 39.4004C97.2515 39.4004 94.5715 36.5204 94.3315 35.5604C94.3315 35.5604 94.2515 34.4804 94.1715 34.0804C94.1715 32.6404 94.8515 31.3604 95.4515 30.0004H95.4115C95.5715 29.8004 95.9715 28.9204 96.0515 28.7204C96.2915 28.0804 98.6515 25.5204 99.3715 25.0404C99.4915 25.0404 100.571 24.2004 100.571 24.2004C101.811 23.5204 102.731 22.4404 104.131 21.9604C104.131 21.5604 104.211 21.1604 104.211 20.7604C104.411 20.5604 104.771 20.3604 105.051 20.1604C105.331 20.0004 105.651 20.0804 105.931 20.2004C106.251 20.4004 106.571 20.6404 106.771 20.8404C107.251 21.3204 108.051 23.2004 108.651 25.1604L109.091 26.9204C109.131 27.1204 109.291 28.1204 109.291 28.2404C109.291 28.8404 110.131 32.2004 110.131 32.4804C110.131 32.6004 110.171 32.6804 110.211 32.7604L110.691 34.4004C110.731 34.6404 110.771 34.8004 110.771 34.8004C110.771 35.0404 110.971 35.6804 111.051 35.8404C111.091 35.8804 111.411 36.4804 111.411 36.5204C111.771 37.6004 111.811 37.9604 111.851 38.3204C111.891 38.4804 111.891 38.5204 111.891 39.2004C111.891 39.8804 110.691 40.0004 110.251 39.9204C109.691 39.8004 108.571 39.4004 107.811 38.4404C107.251 37.7204 107.091 37.5204 107.091 37.4404L106.251 35.4004C105.771 36.1604 104.771 37.3604 103.931 38.3604C103.211 39.2404 102.171 39.5204 101.811 39.6804C101.571 39.7604 100.731 39.9604 100.651 39.9604H99.8915C99.4515 39.9604 98.5715 39.9204 98.0115 39.4004ZM99.9315 34.6804C100.091 34.8404 100.051 35.0804 100.291 35.3204L100.651 35.6004C101.491 35.7204 101.971 35.8404 102.771 35.2804L105.531 33.4804V32.6804C105.531 32.2804 105.371 31.4404 105.211 31.0404C105.211 30.6004 105.011 29.9604 104.971 29.3604L104.771 27.6804C104.771 27.5604 104.731 27.2804 104.731 27.2404H104.291C103.851 27.2404 102.371 28.7204 101.971 29.1604C101.211 30.0804 100.971 30.4404 100.851 30.7204C100.531 31.2404 100.331 31.9204 100.131 32.6004C100.051 32.7204 100.051 33.0004 100.051 33.2404C100.011 33.3204 99.9315 33.5204 99.9315 33.6004V34.6804ZM129.759 40.5204C129.199 40.2004 128.919 39.8804 128.239 39.8804H128.079C128.079 39.7204 127.559 39.2404 127.159 39.0404C126.759 38.8404 126.799 38.6804 126.679 38.2004C126.599 37.7204 126.439 36.3604 126.439 36.0804V34.1204C126.439 34.0004 126.399 33.6004 126.399 33.2404V32.4804C126.399 32.2804 126.359 31.0804 126.319 30.0404C126.279 28.8804 126.239 27.6404 126.239 27.4004C126.239 26.8004 126.199 26.1604 126.039 25.5604L125.799 24.8404C125.719 24.7204 125.599 24.2804 125.599 24.2404L125.399 24.0004H125.119C124.999 24.0004 124.639 24.1204 124.519 24.2004C124.079 24.4004 123.999 24.4804 123.959 24.4804C123.599 24.7604 122.839 25.2004 122.679 25.3204C122.479 25.3604 122.319 25.5204 122.199 25.6404L122.159 25.7204C122.039 25.9204 121.519 26.4804 121.439 26.5604C121.319 26.6804 121.039 27.4804 120.999 27.6004C120.999 27.6404 120.999 27.7604 120.919 27.9204C120.879 28.0804 120.839 28.2404 120.839 28.3604V29.0404C120.839 29.0804 120.759 29.3604 120.679 29.6404C120.599 29.9204 120.559 30.2004 120.559 30.2404C120.559 30.4804 120.519 31.3604 120.479 32.2004C120.439 33.0804 120.439 33.9204 120.439 34.1204C120.439 34.1604 120.439 34.2804 120.399 34.4804C120.359 35.1204 120.039 35.8004 120.039 36.4804C120.039 36.8004 119.999 37.4004 119.879 37.7204C119.519 38.6804 119.799 38.9604 118.879 39.4404C118.839 39.4404 118.559 39.6004 118.559 39.6004L118.359 39.7604C117.919 39.7604 117.879 39.7604 117.759 39.7204C117.479 39.7204 117.399 39.3604 117.159 39.2404C117.079 39.2004 116.999 39.1604 116.879 39.1604H116.399L116.119 39.2804H116.039C115.719 39.2804 115.679 38.7604 115.679 38.5204C115.679 38.5204 115.439 38.1604 115.479 38.2004C115.399 38.0804 115.399 37.9204 115.359 37.7604C115.279 37.4804 115.239 37.0804 115.159 36.6804C115.039 36.3604 114.959 34.9604 114.959 34.6804V33.7204L115.039 33.2804C115.159 32.8804 115.159 32.4404 115.199 32.0404C115.239 31.6004 115.279 31.1204 115.279 30.9604V29.2804C115.279 29.2404 115.279 29.1204 115.319 29.0004C115.359 28.8804 115.399 28.7204 115.399 28.6004V25.8804C115.399 25.8804 115.399 25.7204 115.359 25.6004C115.319 25.4404 115.279 25.2004 115.279 25.1604V24.5204C115.279 24.4004 115.239 24.2804 115.159 24.2004C115.159 24.0004 115.119 23.6404 115.039 23.2004C114.999 22.7204 114.959 22.1604 114.959 21.9604L114.559 21.1204V21.2004C114.559 21.2404 114.479 21.0404 114.439 20.9204C114.359 20.8004 114.319 20.6804 114.319 20.6404C114.319 20.6004 114.399 20.4804 114.439 20.4404L114.599 20.1604L114.879 19.7604C114.879 19.7204 114.959 19.6004 114.959 19.5204H115.719L115.959 19.6004L116.279 19.7204L116.799 19.9604C116.839 20.0004 116.879 20.1204 116.959 20.2004L117.439 20.7604L117.839 21.1604C118.079 21.4404 118.359 21.6804 118.479 21.8004V21.7204L118.559 22.0004C118.759 22.3204 119.199 23.1604 119.679 23.2804C120.199 23.2004 120.639 22.8804 120.999 22.3604V22.4004C121.359 22.0804 122.479 21.3604 123.239 20.8804L123.799 20.5204C124.199 20.4004 124.639 19.9604 124.999 19.8404C125.839 19.7204 126.039 19.7204 126.399 19.6004H127.159C127.159 19.6004 127.479 19.6804 127.799 19.8004C127.839 19.8404 127.959 19.8404 127.999 19.8404C128.199 19.9204 128.639 20.0804 128.639 20.1604C128.799 20.3604 129.399 20.7204 129.399 21.0404L129.759 21.6804V21.6404C130.159 22.0804 130.279 22.9204 130.639 23.5204C130.639 23.8804 130.679 24.2404 130.799 24.6004V24.5604L130.879 24.8004C130.879 24.6804 130.999 25.6404 131.119 26.2804C131.199 27.0004 131.439 27.6004 131.519 28.2004L131.639 29.4404C131.719 30.2004 131.839 31.6404 131.839 32.0404V36.8404C131.839 37.4404 131.639 37.9604 131.599 38.5204V39.2004C131.519 40.0004 131.479 40.0804 131.479 40.0804C131.479 40.3204 131.079 40.7604 131.079 40.7604C130.799 40.7604 130.559 40.6004 129.759 40.5204ZM151.204 40.5204C150.644 40.2004 150.364 39.8804 149.684 39.8804H149.524C149.524 39.7204 149.004 39.2404 148.604 39.0404C148.204 38.8404 148.244 38.6804 148.124 38.2004C148.044 37.7204 147.884 36.3604 147.884 36.0804V34.1204C147.884 34.0004 147.844 33.6004 147.844 33.2404V32.4804C147.844 32.2804 147.804 31.0804 147.764 30.0404C147.724 28.8804 147.684 27.6404 147.684 27.4004C147.684 26.8004 147.644 26.1604 147.484 25.5604L147.244 24.8404C147.164 24.7204 147.044 24.2804 147.044 24.2404L146.844 24.0004H146.564C146.444 24.0004 146.084 24.1204 145.964 24.2004C145.524 24.4004 145.444 24.4804 145.404 24.4804C145.044 24.7604 144.284 25.2004 144.124 25.3204C143.924 25.3604 143.764 25.5204 143.644 25.6404L143.604 25.7204C143.484 25.9204 142.964 26.4804 142.884 26.5604C142.764 26.6804 142.484 27.4804 142.444 27.6004C142.444 27.6404 142.444 27.7604 142.364 27.9204C142.324 28.0804 142.284 28.2404 142.284 28.3604V29.0404C142.284 29.0804 142.204 29.3604 142.124 29.6404C142.044 29.9204 142.004 30.2004 142.004 30.2404C142.004 30.4804 141.964 31.3604 141.924 32.2004C141.884 33.0804 141.884 33.9204 141.884 34.1204C141.884 34.1604 141.884 34.2804 141.844 34.4804C141.804 35.1204 141.484 35.8004 141.484 36.4804C141.484 36.8004 141.444 37.4004 141.324 37.7204C140.964 38.6804 141.244 38.9604 140.324 39.4404C140.284 39.4404 140.004 39.6004 140.004 39.6004L139.804 39.7604C139.364 39.7604 139.324 39.7604 139.204 39.7204C138.924 39.7204 138.844 39.3604 138.604 39.2404C138.524 39.2004 138.444 39.1604 138.324 39.1604H137.844L137.564 39.2804H137.484C137.164 39.2804 137.124 38.7604 137.124 38.5204C137.124 38.5204 136.884 38.1604 136.924 38.2004C136.844 38.0804 136.844 37.9204 136.804 37.7604C136.724 37.4804 136.684 37.0804 136.604 36.6804C136.484 36.3604 136.404 34.9604 136.404 34.6804V33.7204L136.484 33.2804C136.604 32.8804 136.604 32.4404 136.644 32.0404C136.684 31.6004 136.724 31.1204 136.724 30.9604V29.2804C136.724 29.2404 136.724 29.1204 136.764 29.0004C136.804 28.8804 136.844 28.7204 136.844 28.6004V25.8804C136.844 25.8804 136.844 25.7204 136.804 25.6004C136.764 25.4404 136.724 25.2004 136.724 25.1604V24.5204C136.724 24.4004 136.684 24.2804 136.604 24.2004C136.604 24.0004 136.564 23.6404 136.484 23.2004C136.444 22.7204 136.404 22.1604 136.404 21.9604L136.004 21.1204V21.2004C136.004 21.2404 135.924 21.0404 135.884 20.9204C135.804 20.8004 135.764 20.6804 135.764 20.6404C135.764 20.6004 135.844 20.4804 135.884 20.4404L136.044 20.1604L136.324 19.7604C136.324 19.7204 136.404 19.6004 136.404 19.5204H137.164L137.404 19.6004L137.724 19.7204L138.244 19.9604C138.284 20.0004 138.324 20.1204 138.404 20.2004L138.884 20.7604L139.284 21.1604C139.524 21.4404 139.804 21.6804 139.924 21.8004V21.7204L140.004 22.0004C140.204 22.3204 140.644 23.1604 141.124 23.2804C141.644 23.2004 142.084 22.8804 142.444 22.3604V22.4004C142.804 22.0804 143.924 21.3604 144.684 20.8804L145.244 20.5204C145.644 20.4004 146.084 19.9604 146.444 19.8404C147.284 19.7204 147.484 19.7204 147.844 19.6004H148.604C148.604 19.6004 148.924 19.6804 149.244 19.8004C149.284 19.8404 149.404 19.8404 149.444 19.8404C149.644 19.9204 150.084 20.0804 150.084 20.1604C150.244 20.3604 150.844 20.7204 150.844 21.0404L151.204 21.6804V21.6404C151.604 22.0804 151.724 22.9204 152.084 23.5204C152.084 23.8804 152.124 24.2404 152.244 24.6004V24.5604L152.324 24.8004C152.324 24.6804 152.444 25.6404 152.564 26.2804C152.644 27.0004 152.884 27.6004 152.964 28.2004L153.084 29.4404C153.164 30.2004 153.284 31.6404 153.284 32.0404V36.8404C153.284 37.4404 153.084 37.9604 153.044 38.5204V39.2004C152.964 40.0004 152.924 40.0804 152.924 40.0804C152.924 40.3204 152.524 40.7604 152.524 40.7604C152.244 40.7604 152.004 40.6004 151.204 40.5204ZM157.249 32.9204C157.249 32.6804 157.369 31.7604 157.369 31.7604C157.369 31.8404 157.449 31.4004 157.489 31.2004C157.529 31.0004 157.569 30.8404 157.569 30.8004C157.569 30.4004 157.649 29.9604 157.769 29.3604C157.769 28.6004 157.769 28.2404 157.529 28.0004L157.569 27.3204C157.849 26.8004 158.009 26.2004 158.209 25.6004C158.449 24.8004 159.089 24.3204 159.209 24.0004C159.449 23.5604 160.049 22.7204 160.129 22.7204L160.769 22.0804L160.969 21.9604L161.089 21.8804L161.249 21.8004C161.369 21.7204 161.969 21.3604 162.249 21.2404C162.569 21.1204 162.969 20.8404 163.289 20.7204C163.609 20.6004 164.489 20.4404 164.609 20.4404H165.969C166.369 20.4404 166.929 20.5204 167.329 20.6004C167.889 20.6004 169.089 21.1604 169.529 21.6004C169.689 21.8404 170.049 22.1204 170.329 22.3604L171.209 23.2404C171.929 24.0804 172.009 24.2404 172.089 24.3204C172.489 25.0404 172.809 25.8404 173.009 26.4804C173.169 26.9204 173.209 27.2804 173.329 27.7204C173.369 27.8804 173.369 27.9204 173.369 28.8004L173.289 29.1604C173.249 29.2804 173.249 29.4404 173.249 29.5204C173.249 29.6004 173.169 29.7604 173.049 29.8804C173.169 29.6004 172.769 30.3204 172.529 30.6804C172.529 30.6804 172.449 30.7204 172.409 30.7204C172.329 30.7204 172.129 30.6404 172.129 30.6404C171.689 30.6404 171.409 30.9204 170.849 30.9604C170.849 30.9604 170.409 31.0404 169.329 31.2004H168.769L168.529 31.3204C168.489 31.3604 168.249 31.4004 168.249 31.4004C167.889 31.4804 166.689 31.6404 166.449 31.6404H165.089C164.969 31.6404 163.289 31.3204 162.689 31.2004L162.369 31.0804C161.569 30.9604 161.409 30.8404 161.169 30.8404H160.689C160.689 30.8804 160.689 30.9204 160.649 31.0004C160.529 31.2004 160.449 31.6404 160.449 31.7204V33.7604C160.449 33.8804 160.529 33.9604 160.569 34.0404L160.609 34.0804C160.609 34.1604 160.769 34.4404 160.849 34.4804C160.889 34.4804 161.129 34.6804 161.529 34.8004C161.609 34.8404 161.649 34.8404 162.409 35.0004C162.569 35.0404 162.809 35.0804 162.889 35.0804H164.849C164.969 35.0804 165.569 35.0004 165.809 34.9204C166.529 34.8004 169.889 34.1204 170.649 33.8804C171.049 33.7204 171.529 33.7204 171.969 33.7204H172.649C172.649 33.7204 172.889 33.7604 173.009 33.8404C173.009 33.9604 173.169 34.1204 173.169 34.2404V34.9204L173.329 35.3204C173.289 35.6004 173.169 35.8804 173.169 36.2804V36.9204C173.169 37.2804 172.769 37.4004 172.529 37.5604C172.409 37.5604 172.089 37.7604 172.089 37.7604L171.929 38.1604C171.369 38.5204 171.249 38.5604 171.129 38.6004C170.969 38.6404 170.729 38.6804 170.689 38.6804C170.329 38.6804 169.649 39.0804 169.289 39.2004C168.969 39.3204 168.569 39.4004 168.249 39.5204C167.449 39.8004 166.649 39.9204 166.169 40.0004C165.969 40.0404 165.729 40.0804 165.649 40.0804H164.409C164.289 40.0804 163.929 40.0404 163.609 40.0004C163.489 39.9604 163.289 39.9604 163.249 39.9604C163.169 39.9604 162.089 39.7204 161.769 39.6404C161.729 39.6404 161.689 39.6404 161.649 39.6004C161.569 39.6004 161.529 39.5204 161.529 39.5204C161.449 39.5204 160.769 39.3204 160.729 39.2804C160.609 39.2804 160.329 38.9604 160.329 38.9604C160.289 38.9204 159.729 38.7204 159.529 38.6004C158.809 38.1604 158.569 37.7604 158.489 37.6404C158.169 37.1604 157.889 36.8004 157.729 36.1604C157.649 35.9604 157.569 35.7204 157.449 35.0404C157.409 34.9604 157.329 34.5604 157.329 34.3204C157.289 33.9604 157.249 33.4004 157.249 33.2004V32.9204ZM168.249 27.2804C168.569 27.1604 169.049 27.3604 169.369 27.0404C169.489 27.0004 169.569 26.6004 169.569 26.4804C169.329 26.0404 169.209 25.8404 169.209 25.8404L167.689 24.4804C167.489 24.3204 166.969 24.2004 166.969 24.2004C166.689 24.2004 166.449 24.1204 166.129 24.0804C165.649 24.0804 165.129 24.0804 164.609 24.3204C164.369 24.3604 163.649 24.9204 163.529 25.1604L163.569 25.1204L163.409 25.4004C163.369 25.4804 163.169 25.6804 163.129 25.7204C163.089 25.7604 162.929 25.9604 162.929 26.0404V26.7604C162.929 27.0404 163.169 27.0404 163.249 27.0404C163.289 27.0404 163.449 27.0404 163.609 27.0804C163.889 27.1204 164.129 27.1604 164.289 27.1604L168.249 27.2804ZM177.994 38.6804C177.914 38.6404 177.874 38.5604 177.874 38.5204C177.834 38.4004 177.634 37.8004 177.634 37.6804C177.634 37.6004 177.634 37.4804 177.594 37.4004L177.514 37.1604V37.2004C177.474 37.0804 177.434 36.9204 177.434 36.8404C177.394 36.8404 177.354 36.7604 177.314 36.7204V35.9604C177.314 35.8804 177.354 35.4804 177.394 35.0404C177.434 34.7204 177.434 34.3204 177.434 34.2804V34.0404C177.434 33.9204 177.434 33.2004 177.394 32.4804C177.354 31.7204 177.314 30.8804 177.314 30.7204V25.3204C177.314 25.2004 177.274 25.0004 177.274 24.7604C177.234 24.3604 177.234 23.9604 177.234 23.7604C177.234 23.8004 177.154 23.4404 177.114 23.2804C177.074 23.1604 177.074 23.0804 177.074 23.0804V22.7204C177.074 22.6404 177.074 22.4004 177.034 22.2404C177.034 22.1604 176.994 22.0404 176.994 22.0404C176.954 21.9604 176.714 21.1604 176.674 20.8804L176.554 20.6404C176.514 20.6004 176.434 20.4404 176.434 20.4004V20.0404C176.434 20.0404 176.554 20.0004 176.594 20.0004C176.594 20.0004 176.634 19.9604 176.674 19.9604C176.834 19.9204 177.034 19.9204 177.154 19.9204H177.474C177.474 19.9204 177.594 19.9204 177.874 19.8404C177.914 19.8404 177.954 19.8004 177.954 19.8004H178.914L179.194 20.0404C179.234 20.0804 179.674 20.4004 179.714 20.4804C179.754 20.4804 179.834 20.5204 179.914 20.5604C179.914 20.5604 180.074 20.6404 180.154 20.7204C180.314 20.9604 180.754 21.4804 180.754 21.4804C180.754 21.4804 180.994 22.2004 181.154 22.4404V22.3604C181.154 22.3204 181.234 22.6804 181.274 22.9204C181.314 23.0404 181.354 23.1604 181.354 23.2004C181.394 23.6404 181.834 24.8804 181.994 25.0804L182.274 24.8404L182.394 24.6804C182.434 24.4804 182.674 24.1204 182.714 24.0404C182.714 24.0404 182.874 23.8804 183.034 23.6804C183.154 23.4804 183.434 23.1204 183.434 23.2004L184.994 21.6404C185.034 21.6004 185.114 21.6004 185.114 21.5604C185.154 21.5604 185.234 21.5604 185.354 21.5204C185.474 21.4804 185.674 21.4004 185.674 21.4004C185.674 21.3204 185.834 21.2004 185.954 21.1204V21.1604C186.074 21.0404 186.274 20.9604 186.354 20.8804C186.354 20.8804 186.434 20.8404 186.514 20.7604L186.634 20.6404C186.634 20.6404 187.074 20.4804 187.194 20.4004L187.514 20.2004H187.474C187.674 20.1604 188.714 20.0004 188.914 20.0004H190.114C190.194 20.0004 190.634 20.0404 190.714 20.1204C190.714 20.1204 190.754 20.1604 190.874 20.1604C190.914 20.2004 191.034 20.2004 191.074 20.2004C191.234 20.2804 191.554 20.4404 191.554 20.4804L191.834 20.7604C191.874 20.7604 192.074 20.9204 192.114 20.9604V20.9204C192.114 20.9204 192.194 21.0404 192.194 21.1204C192.194 21.1204 192.194 21.2804 192.274 21.3604L192.234 21.3204C192.274 21.4004 192.314 21.4404 192.314 21.4804L192.154 21.7204L191.954 21.8804V23.2404H191.994L191.754 23.3604C191.674 23.4004 191.514 23.4404 191.514 23.4404C191.514 23.4804 191.314 23.8004 191.274 23.8004C190.954 23.8004 190.794 23.8004 190.594 23.7604C190.394 23.7204 190.114 23.6804 189.834 23.6804H189.674C189.594 23.6804 189.314 23.7604 189.154 23.8004C189.194 23.8004 188.874 23.9204 188.634 23.9604C188.594 24.0004 188.554 24.0004 188.474 24.0004C188.474 24.0004 188.234 24.2004 188.154 24.2804C188.074 24.3604 187.794 24.5204 187.714 24.5204L187.474 24.6404L187.314 24.8404C187.154 25.0004 187.074 25.1204 187.034 25.2004L186.954 25.3204L186.114 26.1604C186.074 26.2004 185.554 26.9204 185.434 27.2004C185.434 27.2004 185.354 27.4004 185.274 27.5204L185.194 27.7204C185.194 27.6804 185.154 27.7204 185.114 27.7604C184.994 27.9204 184.954 27.9604 184.954 28.0804C184.954 28.1204 184.834 28.4404 184.794 28.4804L184.554 28.7604L184.314 29.3204C184.234 29.4004 184.114 29.6404 184.074 29.7604H184.114C184.034 29.9204 183.954 30.0004 183.954 30.0404L183.114 31.9204V31.8804C183.074 31.9604 183.034 32.0404 183.034 32.1204C182.994 32.1604 182.994 32.2804 182.994 32.3604L182.874 33.0004L182.754 33.2804C182.754 33.3204 182.714 33.5204 182.674 33.7604C182.634 33.9604 182.634 34.2004 182.634 34.2804V35.4804C182.634 35.5204 182.594 35.6404 182.554 35.7604V35.7204C182.514 35.8004 182.514 35.9604 182.514 35.9604V36.5204C182.514 36.8004 182.354 38.3604 182.314 38.6404C182.314 38.7604 182.274 38.9204 182.234 39.0404V39.0004C182.194 39.0404 182.194 39.1604 182.194 39.2004C182.154 39.3604 182.034 39.7204 181.914 39.7604H181.994C181.994 39.7604 181.594 39.8804 181.514 39.8804H181.034C180.994 39.8804 180.954 39.8804 180.874 39.8404C180.794 39.8004 180.714 39.7604 180.594 39.7604C180.594 39.7604 180.514 39.7204 180.474 39.6804C180.154 39.5204 180.194 39.6004 180.194 39.6004L180.154 39.5204C180.114 39.5204 179.954 39.6404 179.874 39.6804C179.834 39.7204 179.794 39.7604 179.754 39.7604H179.674L179.354 39.6404C179.074 39.5204 178.794 39.4004 178.714 39.3204C178.714 39.3204 178.714 39.2804 178.634 39.2404L178.274 39.0804L178.074 38.8404C178.034 38.8004 177.994 38.7604 177.994 38.6804Z" fill="#84BBFF"/>
</g>
<defs>
<clipPath id="clip0_533_40">
<rect width="201.667" height="50" fill="white" transform="translate(0.166016)"/>
</clipPath>
</defs>
</svg>
