<svg width="121" height="30" viewBox="0 0 121 30" fill="none" xmlns="http://www.w3.org/2000/svg">
<circle cx="113.5" cy="8.5" r="7.5" fill="white"/>
<path d="M107.45 4.06756C106.626 5.19231 106.132 6.5245 106.023 7.91455C105.914 9.3046 106.195 10.6975 106.834 11.9368C107.473 13.1761 108.445 14.2127 109.64 14.9304C110.836 15.648 112.208 16.0182 113.602 15.9993L113.5 8.5L107.45 4.06756Z" fill="#A7B1FF"/>
<path fill-rule="evenodd" clip-rule="evenodd" d="M120.669 10.7051L113.501 8.5L113.406 15.9994C113.892 16.0055 114.379 15.9645 114.86 15.8758C116.073 15.6524 117.212 15.1332 118.176 14.3643C119.141 13.5954 119.9 12.6005 120.389 11.4678C120.496 11.2182 120.59 10.9635 120.669 10.7051Z" fill="#FFA7A7"/>
<path d="M1.368 12.168C1.104 11.328 0.912 10.704 0.912 9.528C0.888 9.048 0.864 8.52 0.864 8.184C0.864 7.872 1.44 7.176 1.752 7.488C2.088 7.824 2.376 8.232 2.664 8.64C3.216 9.336 3.408 9.912 3.768 10.68C3.888 10.872 4.368 11.904 4.464 12.264C4.584 12.816 4.728 13.368 5.04 13.824C5.208 14.232 5.592 15.6 5.592 15.96C5.592 16.584 6.024 17.232 6.024 17.616C6.024 18.024 6.36 19.392 6.576 19.968C6.744 20.424 6.984 20.736 7.176 20.736C7.392 20.736 7.656 19.368 7.992 18.504C8.376 17.592 8.664 16.656 9.048 15.744C9.456 14.712 9.576 13.296 10.056 12.312C10.536 11.376 10.68 10.704 11.16 9.744L11.52 9.024C11.664 8.76 11.928 8.088 12.192 7.512C12.384 7.176 12.84 7.008 13.056 7.296C13.392 7.776 13.584 8.088 13.632 8.304C13.68 8.544 13.728 8.832 13.968 9.408V11.784C13.968 11.856 13.464 13.416 13.32 13.704C12.888 14.76 12.48 16.152 11.88 17.28C11.616 17.736 11.472 18.048 11.424 18.216C11.064 19.32 10.704 20.496 10.248 21.624C10.176 21.816 9.528 23.664 9.288 23.664C9.048 23.664 8.688 23.688 8.568 23.808C8.28 24.072 7.752 23.616 7.464 23.808L6.864 24.144C6.456 24.384 5.784 24.264 5.424 23.904C5.232 23.784 5.016 23.256 4.92 23.04C4.776 22.8 4.68 22.44 4.536 22.152C3.888 20.952 3.552 20.112 3.312 19.44C3.216 19.296 2.88 18.048 2.808 17.544C2.592 16.44 1.896 14.928 1.824 13.992C1.752 13.464 1.56 12.744 1.368 12.168ZM16.2857 23.64C15.8297 23.64 14.2217 21.912 14.0777 21.336C14.0777 21.336 14.0297 20.688 13.9817 20.448C13.9817 19.584 14.3897 18.816 14.7497 18H14.7257C14.8217 17.88 15.0617 17.352 15.1097 17.232C15.2537 16.848 16.6697 15.312 17.1017 15.024C17.1737 15.024 17.8217 14.52 17.8217 14.52C18.5657 14.112 19.1177 13.464 19.9577 13.176C19.9577 12.936 20.0057 12.696 20.0057 12.456C20.1257 12.336 20.3417 12.216 20.5097 12.096C20.6777 12 20.8697 12.048 21.0377 12.12C21.2297 12.24 21.4217 12.384 21.5417 12.504C21.8297 12.792 22.3097 13.92 22.6697 15.096L22.9337 16.152C22.9577 16.272 23.0537 16.872 23.0537 16.944C23.0537 17.304 23.5577 19.32 23.5577 19.488C23.5577 19.56 23.5817 19.608 23.6057 19.656L23.8937 20.64C23.9177 20.784 23.9417 20.88 23.9417 20.88C23.9417 21.024 24.0617 21.408 24.1097 21.504C24.1337 21.528 24.3257 21.888 24.3257 21.912C24.5417 22.56 24.5657 22.776 24.5897 22.992C24.6137 23.088 24.6137 23.112 24.6137 23.52C24.6137 23.928 23.8937 24 23.6297 23.952C23.2937 23.88 22.6217 23.64 22.1657 23.064C21.8297 22.632 21.7337 22.512 21.7337 22.464L21.2297 21.24C20.9417 21.696 20.3417 22.416 19.8377 23.016C19.4057 23.544 18.7817 23.712 18.5657 23.808C18.4217 23.856 17.9177 23.976 17.8697 23.976H17.4137C17.1497 23.976 16.6217 23.952 16.2857 23.64ZM17.4377 20.808C17.5337 20.904 17.5097 21.048 17.6537 21.192L17.8697 21.36C18.3737 21.432 18.6617 21.504 19.1417 21.168L20.7977 20.088V19.608C20.7977 19.368 20.7017 18.864 20.6057 18.624C20.6057 18.36 20.4857 17.976 20.4617 17.616L20.3417 16.608C20.3417 16.536 20.3177 16.368 20.3177 16.344H20.0537C19.7897 16.344 18.9017 17.232 18.6617 17.496C18.2057 18.048 18.0617 18.264 17.9897 18.432C17.7977 18.744 17.6777 19.152 17.5577 19.56C17.5097 19.632 17.5097 19.8 17.5097 19.944C17.4857 19.992 17.4377 20.112 17.4377 20.16V20.808ZM26.238 18.864C26.238 18.864 26.31 18.312 26.358 17.976C26.406 17.784 26.454 17.472 26.454 17.376C26.454 17.28 26.622 16.848 26.646 16.608H26.622L26.958 15.6L27.27 15L27.462 14.616L27.702 14.28V14.304C27.75 14.256 27.942 14.016 27.99 13.896L28.182 13.728C28.182 13.728 28.398 13.536 28.518 13.488L28.734 13.44C28.734 13.44 28.782 13.416 28.83 13.368C28.854 13.344 28.926 13.296 28.974 13.296C28.998 13.248 29.382 13.104 29.43 13.104L29.598 13.056C29.598 13.056 29.742 13.056 29.838 13.032C30.078 13.008 30.438 12.96 30.39 12.96C30.342 12.96 30.702 12.912 30.894 12.888L31.206 12.84H31.59C31.638 12.84 31.926 12.816 32.238 12.768C32.502 12.72 32.814 12.672 32.862 12.672H32.982C33.006 12.696 33.222 12.72 33.342 12.744C33.39 12.768 33.462 12.768 33.51 12.768C33.702 12.816 34.278 12.936 34.47 12.96C34.542 13.032 34.686 13.056 34.806 13.08C34.854 13.104 34.926 13.104 34.974 13.104C34.974 13.2 35.118 13.296 35.166 13.344C35.19 13.368 35.238 13.368 35.238 13.392L35.31 13.464V14.4C35.31 14.4 35.238 14.52 35.166 14.616C35.166 14.592 34.998 14.76 34.998 14.76L34.902 14.88C34.854 14.904 34.782 14.928 34.782 14.928C34.734 14.952 34.71 14.952 34.71 14.952C34.638 14.976 34.182 15.024 34.062 15.024H32.19C32.094 15.024 31.662 15.048 31.494 15.096C31.446 15.096 31.374 15.096 31.35 15.12H31.374C31.302 15.144 31.23 15.192 31.158 15.192L30.678 15.384C30.678 15.384 30.582 15.432 30.51 15.504C30.486 15.528 30.534 15.504 30.486 15.552C30.366 15.744 30.246 15.888 30.222 15.96V15.912L29.91 16.416C29.838 16.56 29.526 17.448 29.502 17.616V17.832C29.502 17.976 29.478 18.144 29.478 18.264C29.478 18.312 29.478 18.456 29.454 18.6C29.43 18.816 29.406 19.056 29.406 19.152C29.406 19.392 29.43 19.632 29.454 19.8C29.454 19.872 29.478 19.896 29.478 19.92C29.478 19.92 29.478 20.064 29.502 20.136C29.622 20.424 29.934 20.592 30.294 20.688C30.414 20.76 30.678 20.76 30.678 20.76H32.094C32.142 20.76 32.286 20.76 32.382 20.736C32.43 20.736 32.478 20.688 32.478 20.688H32.91C32.91 20.688 32.934 20.664 32.91 20.664C33.006 20.592 33.15 20.52 33.174 20.52H33.654C33.654 20.52 33.798 20.496 33.942 20.448C33.966 20.424 34.014 20.4 34.662 20.184L34.782 20.088H35.118C35.142 20.088 35.214 20.112 35.214 20.184C35.238 20.184 35.262 20.184 35.31 20.232V20.88C35.31 20.976 35.214 21.336 35.142 21.792L35.07 22.2L34.878 22.416C34.878 22.464 34.806 22.536 34.758 22.584L33.99 23.112C33.942 23.112 33.606 23.208 33.486 23.28C33.438 23.28 33.342 23.448 33.342 23.448C33.27 23.448 32.982 23.568 32.454 23.712C32.31 23.76 32.118 23.784 32.094 23.784C31.998 23.784 31.974 23.808 31.95 23.832L31.398 23.904C31.23 23.928 30.99 23.952 30.942 23.952H30.27C30.006 23.952 29.502 23.904 29.166 23.88C29.022 23.856 28.854 23.856 28.83 23.856C28.806 23.856 28.446 23.76 28.302 23.688V23.712C28.278 23.688 28.182 23.64 28.158 23.64C27.942 23.52 27.75 23.352 27.534 23.184C27.558 23.208 27.534 23.208 27.51 23.16C27.486 23.16 27.486 23.16 27.486 23.136C27.342 22.92 26.838 22.176 26.742 21.912C26.742 21.936 26.694 21.768 26.67 21.648L26.454 20.952C26.454 20.856 26.286 19.92 26.286 19.8L26.238 19.488V18.864ZM38.3319 19.44C38.3319 18.816 38.4519 18.168 38.4519 17.52C38.5239 16.56 38.6919 15.552 38.6919 14.28C38.7399 13.56 38.8359 12.84 38.8359 12.072V9.48C38.8359 9.168 38.6919 8.952 38.4279 8.64C38.0679 8.184 37.7319 8.088 37.6599 7.992C37.4439 7.776 37.5399 7.152 37.8999 7.152C38.7159 7.152 39.7239 7.248 40.5879 7.44C42.0279 7.8 42.4599 7.944 42.8439 8.064C44.1399 8.52 45.1239 9.024 45.9399 9.48C47.5719 10.392 48.2679 11.208 48.5319 11.592C49.0599 12.384 49.1319 12.744 49.1319 13.032C49.1319 13.416 49.1559 14.184 48.1239 15.552C47.3559 16.584 46.3479 17.352 45.6279 17.664C45.3159 17.832 44.3559 18.144 43.9479 18.24C43.0839 18.384 42.7479 18.384 42.3639 18.768C42.2679 18.864 42.1719 19.368 42.1239 19.992C42.0759 21.024 42.0999 22.44 42.0999 22.992C42.0999 23.544 41.9079 23.592 41.5479 24C41.2839 24.312 40.9719 24.264 40.4199 24.384C40.3959 24.384 40.1799 24.096 39.8439 24.288L39.4359 24.384L39.0279 24.12C38.9079 24 38.9559 23.688 38.8119 23.616L38.4039 23.4C38.2839 23.328 38.3319 22.896 38.3319 22.8V19.44ZM42.0519 14.496C42.0759 14.832 42.0999 15.192 42.3159 15.48C42.8679 15.48 43.2279 15.12 43.6359 14.88C43.8039 14.808 44.2599 14.496 44.9079 13.944C45.2679 13.584 45.6279 13.248 45.9159 12.744V12.36C45.9159 12.264 45.7479 12.12 44.9799 11.472C44.5719 11.16 44.1159 10.968 43.7079 10.704C42.7959 10.104 42.2439 9.96 41.2839 9.792C41.2839 10.464 41.4999 11.16 41.7159 11.952C41.8119 12.528 41.9079 13.08 42.0519 14.496ZM51.3491 23.808C51.3251 23.832 51.1571 23.808 51.0851 23.784L50.9171 23.592C50.8691 23.52 50.7731 23.304 50.7731 23.28C50.7731 23.256 50.7491 23.136 50.7491 23.04C50.7011 22.872 50.6771 22.608 50.6771 22.512V22.368C50.6771 22.224 50.8931 20.904 50.9891 19.92C51.0611 19.8 51.0611 19.68 51.0851 19.32C51.1091 19.296 51.1331 19.224 51.1331 19.176C51.1811 19.008 51.2051 18.432 51.2051 18.336V16.416C51.2051 16.32 51.1811 15.792 51.1571 15.288C51.1331 14.784 51.1331 14.28 51.1331 14.136V13.944L51.3251 12.168C51.3491 11.904 51.3731 11.712 51.3731 11.616V11.472C51.3971 11.376 51.4451 11.232 51.4451 11.184V10.728C51.4451 10.704 51.4691 10.536 51.5171 10.368C51.5411 10.2 51.5891 9.912 51.5891 9.96C51.5891 9.936 51.6131 9.696 51.6611 9.432C51.6851 9.192 51.7571 8.76 51.7571 8.808C51.7811 8.712 51.8291 8.544 51.8291 8.496C51.8291 8.496 51.8291 8.472 51.8531 8.4C51.8771 8.328 51.9011 8.208 51.9011 8.16C51.9491 7.992 52.0451 7.56 52.0451 7.56C52.0451 7.56 52.0691 7.512 52.0451 7.536C52.1171 7.44 52.2851 7.248 52.2851 7.272L52.6691 6.864C52.6931 6.864 52.7171 6.888 52.7891 6.912L53.0531 7.08L53.1491 7.224L53.3651 7.584C53.3651 7.656 53.3891 7.752 53.4131 7.8L53.4371 7.824C53.4371 7.872 53.4611 8.016 53.5091 8.136C53.5091 8.184 53.5331 8.352 53.5811 8.52C53.6051 8.712 53.6531 8.904 53.6531 8.88C53.6531 8.904 53.7011 9.072 53.7251 9.192C53.7731 9.288 53.8211 9.456 53.8211 9.432V9.456C53.8691 9.6 53.9651 10.152 53.9651 10.272L54.2771 12.984V13.992C54.2771 14.088 54.3251 14.352 54.3491 14.424V16.488C54.3491 16.56 54.3491 16.92 54.3731 17.28C54.3971 17.616 54.4211 17.952 54.4211 18.024V18.408C54.4211 18.528 54.3971 18.96 54.3731 19.248C54.3491 19.44 54.3491 19.632 54.3491 19.68C54.3491 19.776 54.2291 20.616 54.1811 20.88C54.1811 20.904 54.1571 21.024 54.1331 21.144C54.1091 21.24 54.1091 21.36 54.1091 21.36V21.504C54.0851 21.816 53.8211 23.112 53.7251 23.4C53.7251 23.448 53.7011 23.496 53.6771 23.568V23.544C53.6531 23.568 53.6531 23.64 53.6531 23.688C53.6291 23.808 53.5811 23.976 53.5091 24.048V24.072H53.3651L53.1971 24C53.1731 24 53.0531 24.072 52.9811 24.144H52.3571C52.3571 24.144 52.3091 24.168 52.2611 24.216L52.1651 24.312H52.0691L51.4931 23.808H51.3491ZM58.7076 23.64C58.2516 23.64 56.6436 21.912 56.4996 21.336C56.4996 21.336 56.4516 20.688 56.4036 20.448C56.4036 19.584 56.8116 18.816 57.1716 18H57.1476C57.2436 17.88 57.4836 17.352 57.5316 17.232C57.6756 16.848 59.0916 15.312 59.5236 15.024C59.5956 15.024 60.2436 14.52 60.2436 14.52C60.9876 14.112 61.5396 13.464 62.3796 13.176C62.3796 12.936 62.4276 12.696 62.4276 12.456C62.5476 12.336 62.7636 12.216 62.9316 12.096C63.0996 12 63.2916 12.048 63.4596 12.12C63.6516 12.24 63.8436 12.384 63.9636 12.504C64.2516 12.792 64.7316 13.92 65.0916 15.096L65.3556 16.152C65.3796 16.272 65.4756 16.872 65.4756 16.944C65.4756 17.304 65.9796 19.32 65.9796 19.488C65.9796 19.56 66.0036 19.608 66.0276 19.656L66.3156 20.64C66.3396 20.784 66.3636 20.88 66.3636 20.88C66.3636 21.024 66.4836 21.408 66.5316 21.504C66.5556 21.528 66.7476 21.888 66.7476 21.912C66.9636 22.56 66.9876 22.776 67.0116 22.992C67.0356 23.088 67.0356 23.112 67.0356 23.52C67.0356 23.928 66.3156 24 66.0516 23.952C65.7156 23.88 65.0436 23.64 64.5876 23.064C64.2516 22.632 64.1556 22.512 64.1556 22.464L63.6516 21.24C63.3636 21.696 62.7636 22.416 62.2596 23.016C61.8276 23.544 61.2036 23.712 60.9876 23.808C60.8436 23.856 60.3396 23.976 60.2916 23.976H59.8356C59.5716 23.976 59.0436 23.952 58.7076 23.64ZM59.8596 20.808C59.9556 20.904 59.9316 21.048 60.0756 21.192L60.2916 21.36C60.7956 21.432 61.0836 21.504 61.5636 21.168L63.2196 20.088V19.608C63.2196 19.368 63.1236 18.864 63.0276 18.624C63.0276 18.36 62.9076 17.976 62.8836 17.616L62.7636 16.608C62.7636 16.536 62.7396 16.368 62.7396 16.344H62.4756C62.2116 16.344 61.3236 17.232 61.0836 17.496C60.6276 18.048 60.4836 18.264 60.4116 18.432C60.2196 18.744 60.0996 19.152 59.9796 19.56C59.9316 19.632 59.9316 19.8 59.9316 19.944C59.9076 19.992 59.8596 20.112 59.8596 20.16V20.808ZM77.7559 24.312C77.4199 24.12 77.2519 23.928 76.8439 23.928H76.7479C76.7479 23.832 76.4359 23.544 76.1959 23.424C75.9559 23.304 75.9799 23.208 75.9079 22.92C75.8599 22.632 75.7639 21.816 75.7639 21.648V20.472C75.7639 20.4 75.7399 20.16 75.7399 19.944V19.488C75.7399 19.368 75.7159 18.648 75.6919 18.024C75.6679 17.328 75.6439 16.584 75.6439 16.44C75.6439 16.08 75.6199 15.696 75.5239 15.336L75.3799 14.904C75.3319 14.832 75.2599 14.568 75.2599 14.544L75.1399 14.4H74.9719C74.8999 14.4 74.6839 14.472 74.6119 14.52C74.3479 14.64 74.2999 14.688 74.2759 14.688C74.0599 14.856 73.6039 15.12 73.5079 15.192C73.3879 15.216 73.2919 15.312 73.2199 15.384L73.1959 15.432C73.1239 15.552 72.8119 15.888 72.7639 15.936C72.6919 16.008 72.5239 16.488 72.4999 16.56C72.4999 16.584 72.4999 16.656 72.4519 16.752C72.4279 16.848 72.4039 16.944 72.4039 17.016V17.424C72.4039 17.448 72.3559 17.616 72.3079 17.784C72.2599 17.952 72.2359 18.12 72.2359 18.144C72.2359 18.288 72.2119 18.816 72.1879 19.32C72.1639 19.848 72.1639 20.352 72.1639 20.472C72.1639 20.496 72.1639 20.568 72.1399 20.688C72.1159 21.072 71.9239 21.48 71.9239 21.888C71.9239 22.08 71.8999 22.44 71.8279 22.632C71.6119 23.208 71.7799 23.376 71.2279 23.664C71.2039 23.664 71.0359 23.76 71.0359 23.76L70.9159 23.856C70.6519 23.856 70.6279 23.856 70.5559 23.832C70.3879 23.832 70.3399 23.616 70.1959 23.544C70.1479 23.52 70.0999 23.496 70.0279 23.496H69.7399L69.5719 23.568H69.5239C69.3319 23.568 69.3079 23.256 69.3079 23.112C69.3079 23.112 69.1639 22.896 69.1879 22.92C69.1399 22.848 69.1399 22.752 69.1159 22.656C69.0679 22.488 69.0439 22.248 68.9959 22.008C68.9239 21.816 68.8759 20.976 68.8759 20.808V20.232L68.9239 19.968C68.9959 19.728 68.9959 19.464 69.0199 19.224C69.0439 18.96 69.0679 18.672 69.0679 18.576V17.568C69.0679 17.544 69.0679 17.472 69.0919 17.4C69.1159 17.328 69.1399 17.232 69.1399 17.16V15.528C69.1399 15.528 69.1399 15.432 69.1159 15.36C69.0919 15.264 69.0679 15.12 69.0679 15.096V14.712C69.0679 14.64 69.0439 14.568 68.9959 14.52C68.9959 14.4 68.9719 14.184 68.9239 13.92C68.8999 13.632 68.8759 13.296 68.8759 13.176L68.6359 12.672V12.72C68.6359 12.744 68.5879 12.624 68.5639 12.552C68.5159 12.48 68.4919 12.408 68.4919 12.384C68.4919 12.36 68.5399 12.288 68.5639 12.264L68.6599 12.096L68.8279 11.856C68.8279 11.832 68.8759 11.76 68.8759 11.712H69.3319L69.4759 11.76L69.6679 11.832L69.9799 11.976C70.0039 12 70.0279 12.072 70.0759 12.12L70.3639 12.456L70.6039 12.696C70.7479 12.864 70.9159 13.008 70.9879 13.08V13.032L71.0359 13.2C71.1559 13.392 71.4199 13.896 71.7079 13.968C72.0199 13.92 72.2839 13.728 72.4999 13.416V13.44C72.7159 13.248 73.3879 12.816 73.8439 12.528L74.1799 12.312C74.4199 12.24 74.6839 11.976 74.8999 11.904C75.4039 11.832 75.5239 11.832 75.7399 11.76H76.1959C76.1959 11.76 76.3879 11.808 76.5799 11.88C76.6039 11.904 76.6759 11.904 76.6999 11.904C76.8199 11.952 77.0839 12.048 77.0839 12.096C77.1799 12.216 77.5399 12.432 77.5399 12.624L77.7559 13.008V12.984C77.9959 13.248 78.0679 13.752 78.2839 14.112C78.2839 14.328 78.3079 14.544 78.3799 14.76V14.736L78.4279 14.88C78.4279 14.808 78.4999 15.384 78.5719 15.768C78.6199 16.2 78.7639 16.56 78.8119 16.92L78.8839 17.664C78.9319 18.12 79.0039 18.984 79.0039 19.224V22.104C79.0039 22.464 78.8839 22.776 78.8599 23.112V23.52C78.8119 24 78.7879 24.048 78.7879 24.048C78.7879 24.192 78.5479 24.456 78.5479 24.456C78.3799 24.456 78.2359 24.36 77.7559 24.312ZM90.6231 24.312C90.2871 24.12 90.1191 23.928 89.7111 23.928H89.6151C89.6151 23.832 89.3031 23.544 89.0631 23.424C88.8231 23.304 88.8471 23.208 88.7751 22.92C88.7271 22.632 88.6311 21.816 88.6311 21.648V20.472C88.6311 20.4 88.6071 20.16 88.6071 19.944V19.488C88.6071 19.368 88.5831 18.648 88.5591 18.024C88.5351 17.328 88.5111 16.584 88.5111 16.44C88.5111 16.08 88.4871 15.696 88.3911 15.336L88.2471 14.904C88.1991 14.832 88.1271 14.568 88.1271 14.544L88.0071 14.4H87.8391C87.7671 14.4 87.5511 14.472 87.4791 14.52C87.2151 14.64 87.1671 14.688 87.1431 14.688C86.9271 14.856 86.4711 15.12 86.3751 15.192C86.2551 15.216 86.1591 15.312 86.0871 15.384L86.0631 15.432C85.9911 15.552 85.6791 15.888 85.6311 15.936C85.5591 16.008 85.3911 16.488 85.3671 16.56C85.3671 16.584 85.3671 16.656 85.3191 16.752C85.2951 16.848 85.2711 16.944 85.2711 17.016V17.424C85.2711 17.448 85.2231 17.616 85.1751 17.784C85.1271 17.952 85.1031 18.12 85.1031 18.144C85.1031 18.288 85.0791 18.816 85.0551 19.32C85.0311 19.848 85.0311 20.352 85.0311 20.472C85.0311 20.496 85.0311 20.568 85.0071 20.688C84.9831 21.072 84.7911 21.48 84.7911 21.888C84.7911 22.08 84.7671 22.44 84.6951 22.632C84.4791 23.208 84.6471 23.376 84.0951 23.664C84.0711 23.664 83.9031 23.76 83.9031 23.76L83.7831 23.856C83.5191 23.856 83.4951 23.856 83.4231 23.832C83.2551 23.832 83.2071 23.616 83.0631 23.544C83.0151 23.52 82.9671 23.496 82.8951 23.496H82.6071L82.4391 23.568H82.3911C82.1991 23.568 82.1751 23.256 82.1751 23.112C82.1751 23.112 82.0311 22.896 82.0551 22.92C82.0071 22.848 82.0071 22.752 81.9831 22.656C81.9351 22.488 81.9111 22.248 81.8631 22.008C81.7911 21.816 81.7431 20.976 81.7431 20.808V20.232L81.7911 19.968C81.8631 19.728 81.8631 19.464 81.8871 19.224C81.9111 18.96 81.9351 18.672 81.9351 18.576V17.568C81.9351 17.544 81.9351 17.472 81.9591 17.4C81.9831 17.328 82.0071 17.232 82.0071 17.16V15.528C82.0071 15.528 82.0071 15.432 81.9831 15.36C81.9591 15.264 81.9351 15.12 81.9351 15.096V14.712C81.9351 14.64 81.9111 14.568 81.8631 14.52C81.8631 14.4 81.8391 14.184 81.7911 13.92C81.7671 13.632 81.7431 13.296 81.7431 13.176L81.5031 12.672V12.72C81.5031 12.744 81.4551 12.624 81.4311 12.552C81.3831 12.48 81.3591 12.408 81.3591 12.384C81.3591 12.36 81.4071 12.288 81.4311 12.264L81.5271 12.096L81.6951 11.856C81.6951 11.832 81.7431 11.76 81.7431 11.712H82.1991L82.3431 11.76L82.5351 11.832L82.8471 11.976C82.8711 12 82.8951 12.072 82.9431 12.12L83.2311 12.456L83.4711 12.696C83.6151 12.864 83.7831 13.008 83.8551 13.08V13.032L83.9031 13.2C84.0231 13.392 84.2871 13.896 84.5751 13.968C84.8871 13.92 85.1511 13.728 85.3671 13.416V13.44C85.5831 13.248 86.2551 12.816 86.7111 12.528L87.0471 12.312C87.2871 12.24 87.5511 11.976 87.7671 11.904C88.2711 11.832 88.3911 11.832 88.6071 11.76H89.0631C89.0631 11.76 89.2551 11.808 89.4471 11.88C89.4711 11.904 89.5431 11.904 89.5671 11.904C89.6871 11.952 89.9511 12.048 89.9511 12.096C90.0471 12.216 90.4071 12.432 90.4071 12.624L90.6231 13.008V12.984C90.8631 13.248 90.9351 13.752 91.1511 14.112C91.1511 14.328 91.1751 14.544 91.2471 14.76V14.736L91.2951 14.88C91.2951 14.808 91.3671 15.384 91.4391 15.768C91.4871 16.2 91.6311 16.56 91.6791 16.92L91.7511 17.664C91.7991 18.12 91.8711 18.984 91.8711 19.224V22.104C91.8711 22.464 91.7511 22.776 91.7271 23.112V23.52C91.6791 24 91.6551 24.048 91.6551 24.048C91.6551 24.192 91.4151 24.456 91.4151 24.456C91.2471 24.456 91.1031 24.36 90.6231 24.312ZM94.2503 19.752C94.2503 19.608 94.3223 19.056 94.3223 19.056C94.3223 19.104 94.3703 18.84 94.3943 18.72C94.4183 18.6 94.4423 18.504 94.4423 18.48C94.4423 18.24 94.4902 17.976 94.5623 17.616C94.5623 17.16 94.5623 16.944 94.4183 16.8L94.4423 16.392C94.6103 16.08 94.7063 15.72 94.8263 15.36C94.9703 14.88 95.3543 14.592 95.4263 14.4C95.5703 14.136 95.9303 13.632 95.9783 13.632L96.3623 13.248L96.4823 13.176L96.5543 13.128L96.6503 13.08C96.7223 13.032 97.0823 12.816 97.2503 12.744C97.4423 12.672 97.6823 12.504 97.8743 12.432C98.0663 12.36 98.5943 12.264 98.6663 12.264H99.4823C99.7223 12.264 100.058 12.312 100.298 12.36C100.634 12.36 101.354 12.696 101.618 12.96C101.714 13.104 101.93 13.272 102.098 13.416L102.626 13.944C103.058 14.448 103.106 14.544 103.154 14.592C103.394 15.024 103.586 15.504 103.706 15.888C103.802 16.152 103.826 16.368 103.898 16.632C103.922 16.728 103.922 16.752 103.922 17.28L103.874 17.496C103.85 17.568 103.85 17.664 103.85 17.712C103.85 17.76 103.802 17.856 103.73 17.928C103.802 17.76 103.562 18.192 103.418 18.408C103.418 18.408 103.37 18.432 103.346 18.432C103.298 18.432 103.178 18.384 103.178 18.384C102.914 18.384 102.746 18.552 102.41 18.576C102.41 18.576 102.146 18.624 101.498 18.72H101.162L101.018 18.792C100.994 18.816 100.85 18.84 100.85 18.84C100.634 18.888 99.9143 18.984 99.7703 18.984H98.9543C98.8823 18.984 97.8743 18.792 97.5143 18.72L97.3223 18.648C96.8423 18.576 96.7463 18.504 96.6023 18.504H96.3143C96.3143 18.528 96.3143 18.552 96.2903 18.6C96.2183 18.72 96.1703 18.984 96.1703 19.032V20.256C96.1703 20.328 96.2183 20.376 96.2423 20.424L96.2663 20.448C96.2663 20.496 96.3623 20.664 96.4103 20.688C96.4342 20.688 96.5783 20.808 96.8183 20.88C96.8663 20.904 96.8903 20.904 97.3463 21C97.4423 21.024 97.5863 21.048 97.6343 21.048H98.8103C98.8823 21.048 99.2422 21 99.3863 20.952C99.8183 20.88 101.834 20.472 102.29 20.328C102.53 20.232 102.818 20.232 103.082 20.232H103.49C103.49 20.232 103.634 20.256 103.706 20.304C103.706 20.376 103.802 20.472 103.802 20.544V20.952L103.898 21.192C103.874 21.36 103.802 21.528 103.802 21.768V22.152C103.802 22.368 103.562 22.44 103.418 22.536C103.346 22.536 103.154 22.656 103.154 22.656L103.058 22.896C102.722 23.112 102.65 23.136 102.578 23.16C102.482 23.184 102.338 23.208 102.314 23.208C102.098 23.208 101.69 23.448 101.474 23.52C101.282 23.592 101.042 23.64 100.85 23.712C100.37 23.88 99.8903 23.952 99.6023 24C99.4823 24.024 99.3383 24.048 99.2903 24.048H98.5463C98.4743 24.048 98.2583 24.024 98.0663 24C97.9943 23.976 97.8743 23.976 97.8503 23.976C97.8023 23.976 97.1543 23.832 96.9623 23.784C96.9383 23.784 96.9143 23.784 96.8903 23.76C96.8423 23.76 96.8183 23.712 96.8183 23.712C96.7703 23.712 96.3623 23.592 96.3383 23.568C96.2663 23.568 96.0983 23.376 96.0983 23.376C96.0742 23.352 95.7383 23.232 95.6183 23.16C95.1863 22.896 95.0423 22.656 94.9943 22.584C94.8023 22.296 94.6343 22.08 94.5383 21.696C94.4902 21.576 94.4423 21.432 94.3703 21.024C94.3463 20.976 94.2983 20.736 94.2983 20.592C94.2743 20.376 94.2503 20.04 94.2503 19.92V19.752ZM100.85 16.368C101.042 16.296 101.33 16.416 101.522 16.224C101.594 16.2 101.642 15.96 101.642 15.888C101.498 15.624 101.426 15.504 101.426 15.504L100.514 14.688C100.394 14.592 100.082 14.52 100.082 14.52C99.9143 14.52 99.7703 14.472 99.5783 14.448C99.2903 14.448 98.9783 14.448 98.6663 14.592C98.5223 14.616 98.0903 14.952 98.0183 15.096L98.0423 15.072L97.9463 15.24C97.9223 15.288 97.8023 15.408 97.7783 15.432C97.7543 15.456 97.6583 15.576 97.6583 15.624V16.056C97.6583 16.224 97.8023 16.224 97.8503 16.224C97.8743 16.224 97.9703 16.224 98.0663 16.248C98.2343 16.272 98.3783 16.296 98.4743 16.296L100.85 16.368ZM106.697 23.208C106.649 23.184 106.625 23.136 106.625 23.112C106.601 23.04 106.481 22.68 106.481 22.608C106.481 22.56 106.481 22.488 106.457 22.44L106.409 22.296V22.32C106.385 22.248 106.361 22.152 106.361 22.104C106.337 22.104 106.313 22.056 106.289 22.032V21.576C106.289 21.528 106.313 21.288 106.337 21.024C106.361 20.832 106.361 20.592 106.361 20.568V20.424C106.361 20.352 106.361 19.92 106.337 19.488C106.313 19.032 106.289 18.528 106.289 18.432V15.192C106.289 15.12 106.265 15 106.265 14.856C106.241 14.616 106.241 14.376 106.241 14.256C106.241 14.28 106.193 14.064 106.169 13.968C106.145 13.896 106.145 13.848 106.145 13.848V13.632C106.145 13.584 106.145 13.44 106.121 13.344C106.121 13.296 106.097 13.224 106.097 13.224C106.073 13.176 105.929 12.696 105.905 12.528L105.833 12.384C105.809 12.36 105.761 12.264 105.761 12.24V12.024C105.761 12.024 105.833 12 105.857 12C105.857 12 105.881 11.976 105.905 11.976C106.001 11.952 106.121 11.952 106.193 11.952H106.385C106.385 11.952 106.457 11.952 106.625 11.904C106.649 11.904 106.673 11.88 106.673 11.88H107.249L107.417 12.024C107.441 12.048 107.705 12.24 107.729 12.288C107.753 12.288 107.801 12.312 107.849 12.336C107.849 12.336 107.945 12.384 107.993 12.432C108.089 12.576 108.353 12.888 108.353 12.888C108.353 12.888 108.497 13.32 108.593 13.464V13.416C108.593 13.392 108.641 13.608 108.665 13.752C108.689 13.824 108.713 13.896 108.713 13.92C108.737 14.184 109.001 14.928 109.097 15.048L109.265 14.904L109.337 14.808C109.361 14.688 109.505 14.472 109.529 14.424C109.529 14.424 109.625 14.328 109.721 14.208C109.793 14.088 109.961 13.872 109.961 13.92L110.897 12.984C110.921 12.96 110.969 12.96 110.969 12.936C110.993 12.936 111.041 12.936 111.113 12.912C111.185 12.888 111.305 12.84 111.305 12.84C111.305 12.792 111.401 12.72 111.473 12.672V12.696C111.545 12.624 111.665 12.576 111.713 12.528C111.713 12.528 111.761 12.504 111.809 12.456L111.881 12.384C111.881 12.384 112.145 12.288 112.217 12.24L112.409 12.12H112.385C112.505 12.096 113.129 12 113.249 12H113.969C114.017 12 114.281 12.024 114.329 12.072C114.329 12.072 114.353 12.096 114.425 12.096C114.449 12.12 114.521 12.12 114.545 12.12C114.641 12.168 114.833 12.264 114.833 12.288L115.001 12.456C115.025 12.456 115.145 12.552 115.169 12.576V12.552C115.169 12.552 115.217 12.624 115.217 12.672C115.217 12.672 115.217 12.768 115.265 12.816L115.241 12.792C115.265 12.84 115.289 12.864 115.289 12.888L115.193 13.032L115.073 13.128V13.944H115.097L114.953 14.016C114.905 14.04 114.809 14.064 114.809 14.064C114.809 14.088 114.689 14.28 114.665 14.28C114.473 14.28 114.377 14.28 114.257 14.256C114.137 14.232 113.969 14.208 113.801 14.208H113.705C113.657 14.208 113.489 14.256 113.393 14.28C113.417 14.28 113.225 14.352 113.081 14.376C113.057 14.4 113.033 14.4 112.985 14.4C112.985 14.4 112.841 14.52 112.793 14.568C112.745 14.616 112.577 14.712 112.529 14.712L112.385 14.784L112.289 14.904C112.193 15 112.145 15.072 112.121 15.12L112.073 15.192L111.569 15.696C111.545 15.72 111.233 16.152 111.161 16.32C111.161 16.32 111.113 16.44 111.065 16.512L111.017 16.632C111.017 16.608 110.993 16.632 110.969 16.656C110.897 16.752 110.873 16.776 110.873 16.848C110.873 16.872 110.801 17.064 110.777 17.088L110.633 17.256L110.489 17.592C110.441 17.64 110.369 17.784 110.345 17.856H110.369C110.321 17.952 110.273 18 110.273 18.024L109.769 19.152V19.128C109.745 19.176 109.721 19.224 109.721 19.272C109.697 19.296 109.697 19.368 109.697 19.416L109.625 19.8L109.553 19.968C109.553 19.992 109.529 20.112 109.505 20.256C109.481 20.376 109.481 20.52 109.481 20.568V21.288C109.481 21.312 109.457 21.384 109.433 21.456V21.432C109.409 21.48 109.409 21.576 109.409 21.576V21.912C109.409 22.08 109.313 23.016 109.289 23.184C109.289 23.256 109.265 23.352 109.241 23.424V23.4C109.217 23.424 109.217 23.496 109.217 23.52C109.193 23.616 109.121 23.832 109.049 23.856H109.097C109.097 23.856 108.857 23.928 108.809 23.928H108.521C108.497 23.928 108.473 23.928 108.425 23.904C108.377 23.88 108.329 23.856 108.257 23.856C108.257 23.856 108.209 23.832 108.185 23.808C107.993 23.712 108.017 23.76 108.017 23.76L107.993 23.712C107.969 23.712 107.873 23.784 107.825 23.808C107.801 23.832 107.777 23.856 107.753 23.856H107.705L107.513 23.784C107.345 23.712 107.177 23.64 107.129 23.592C107.129 23.592 107.129 23.568 107.081 23.544L106.865 23.448L106.745 23.304C106.721 23.28 106.697 23.256 106.697 23.208Z" fill="#84BBFF"/>
</svg>
